<?xml version="1.0" standalone="no"?>
<!DOCTYPE svg PUBLIC "-//W3C//DTD SVG 1.1//EN" "http://www.w3.org/Graphics/SVG/1.1/DTD/svg11.dtd">
<svg width="100%" height="100%" viewBox="0 0 250 100" version="1.1" xmlns="http://www.w3.org/2000/svg" xmlns:xlink="http://www.w3.org/1999/xlink" xml:space="preserve" style="fill-rule:evenodd;clip-rule:evenodd;stroke-linejoin:round;stroke-miterlimit:1.41421;">
    <g>
        <g transform="matrix(0.875774,0,0,0.875774,4.69734,8.60134)">
            <path d="M25.5,35.3C29.4,34.2 33.6,33.4 38,33L38,29.6C38,26.6 40.4,24.2 43.4,24.2L51.3,24.2C54.3,24.2 56.7,26.6 56.7,29.6L56.7,33.7C68,35.5 76.1,38.9 80,41.7L89.8,41.7L96.4,48.3L86.6,48.7C87.6,50.5 88.1,52.4 88.1,54.3L88.2,54.3C88.2,54.4 88.3,54.5 88.3,54.6L88.1,54.6C88,56.6 87.4,58.6 86.3,60.4L96.5,60.9L89.9,67.5L79.2,67.5C71.5,72.6 59.4,75.9 45.8,75.9C22.4,75.9 3.5,66.2 3.5,54.3C3.5,46.1 12.4,39 25.5,35.3ZM68.8,58.4C72.4,58.4 75.4,55.5 75.4,51.8C75.4,48.2 72.5,45.2 68.8,45.2C65.2,45.2 62.2,48.1 62.2,51.8C62.2,55.5 65.1,58.4 68.8,58.4ZM47.1,58.4C50.7,58.4 53.7,55.5 53.7,51.8C53.7,48.2 50.8,45.2 47.1,45.2C43.5,45.2 40.5,48.1 40.5,51.8C40.6,55.5 43.5,58.4 47.1,58.4ZM25.6,58.4C29.2,58.4 32.2,55.5 32.2,51.8C32.2,48.2 29.3,45.2 25.6,45.2C22,45.2 19,48.1 19,51.8C19.1,55.5 22,58.4 25.6,58.4Z" style="fill:rgb(255,0,68);fill-rule:nonzero;"/>
        </g>
        <g transform="matrix(2.01054,0,0,2.01054,100.08,38.3752)">
            <path d="M0.709,-6.108L1.973,-6.108L1.973,-4.926L1.997,-4.926C2.036,-5.092 2.113,-5.253 2.227,-5.411C2.341,-5.568 2.479,-5.712 2.64,-5.842C2.802,-5.972 2.981,-6.076 3.178,-6.155C3.375,-6.234 3.576,-6.273 3.78,-6.273C3.938,-6.273 4.046,-6.269 4.105,-6.261C4.164,-6.254 4.225,-6.246 4.288,-6.238L4.288,-4.938C4.194,-4.954 4.097,-4.968 3.999,-4.98C3.901,-4.991 3.804,-4.997 3.71,-4.997C3.481,-4.997 3.267,-4.952 3.066,-4.861C2.865,-4.771 2.69,-4.637 2.54,-4.46C2.39,-4.283 2.272,-4.064 2.186,-3.804C2.099,-3.544 2.056,-3.245 2.056,-2.906L2.056,0L0.709,0L0.709,-6.108Z" style="fill:rgb(115,115,115);fill-rule:nonzero;"/>
            <path d="M4.903,-8.435L6.25,-8.435L6.25,-7.159L4.903,-7.159L4.903,-8.435ZM4.903,-6.108L6.25,-6.108L6.25,0L4.903,0L4.903,-6.108Z" style="fill:rgb(115,115,115);fill-rule:nonzero;"/>
            <path d="M10.514,0.165C10.026,0.165 9.591,0.085 9.209,-0.077C8.827,-0.238 8.504,-0.461 8.24,-0.744C7.976,-1.028 7.776,-1.366 7.638,-1.76C7.5,-2.154 7.431,-2.587 7.431,-3.06C7.431,-3.525 7.5,-3.954 7.638,-4.348C7.776,-4.741 7.976,-5.08 8.24,-5.364C8.504,-5.647 8.827,-5.87 9.209,-6.031C9.591,-6.193 10.026,-6.273 10.514,-6.273C11.003,-6.273 11.438,-6.193 11.82,-6.031C12.202,-5.87 12.525,-5.647 12.789,-5.364C13.053,-5.08 13.253,-4.741 13.391,-4.348C13.529,-3.954 13.598,-3.525 13.598,-3.06C13.598,-2.587 13.529,-2.154 13.391,-1.76C13.253,-1.366 13.053,-1.028 12.789,-0.744C12.525,-0.461 12.202,-0.238 11.82,-0.077C11.438,0.085 11.003,0.165 10.514,0.165ZM10.514,-0.898C10.814,-0.898 11.074,-0.961 11.294,-1.087C11.515,-1.213 11.696,-1.378 11.838,-1.583C11.979,-1.788 12.084,-2.018 12.151,-2.274C12.218,-2.53 12.251,-2.792 12.251,-3.06C12.251,-3.32 12.218,-3.58 12.151,-3.84C12.084,-4.099 11.979,-4.33 11.838,-4.531C11.696,-4.732 11.515,-4.895 11.294,-5.021C11.074,-5.147 10.814,-5.21 10.514,-5.21C10.215,-5.21 9.955,-5.147 9.735,-5.021C9.514,-4.895 9.333,-4.732 9.191,-4.531C9.05,-4.33 8.945,-4.099 8.878,-3.84C8.811,-3.58 8.778,-3.32 8.778,-3.06C8.778,-2.792 8.811,-2.53 8.878,-2.274C8.945,-2.018 9.05,-1.788 9.191,-1.583C9.333,-1.378 9.514,-1.213 9.735,-1.087C9.955,-0.961 10.215,-0.898 10.514,-0.898Z" style="fill:rgb(115,115,115);fill-rule:nonzero;"/>
            <path d="M14.106,-6.108L15.122,-6.108L15.122,-7.939L16.469,-7.939L16.469,-6.108L17.686,-6.108L17.686,-5.104L16.469,-5.104L16.469,-1.843C16.469,-1.701 16.475,-1.579 16.486,-1.477C16.498,-1.374 16.526,-1.288 16.569,-1.217C16.612,-1.146 16.677,-1.093 16.764,-1.057C16.851,-1.022 16.969,-1.004 17.118,-1.004C17.213,-1.004 17.308,-1.006 17.402,-1.01C17.497,-1.014 17.591,-1.028 17.686,-1.051L17.686,-0.012C17.536,0.004 17.39,0.02 17.248,0.035C17.107,0.051 16.961,0.059 16.811,0.059C16.457,0.059 16.171,0.026 15.955,-0.041C15.738,-0.108 15.569,-0.207 15.447,-0.337C15.325,-0.467 15.242,-0.63 15.199,-0.827C15.155,-1.024 15.13,-1.248 15.122,-1.5L15.122,-5.104L14.106,-5.104L14.106,-6.108Z" style="fill:rgb(115,115,115);fill-rule:nonzero;"/>
        </g>
        <g transform="matrix(3.69176,0,0,3.69176,98.1417,67.8254)">
            <path d="M1.752,-1.992C1.792,-1.592 1.944,-1.312 2.208,-1.152C2.472,-0.992 2.788,-0.912 3.156,-0.912C3.284,-0.912 3.43,-0.922 3.594,-0.942C3.758,-0.962 3.912,-1 4.056,-1.056C4.2,-1.112 4.318,-1.194 4.41,-1.302C4.502,-1.41 4.544,-1.552 4.536,-1.728C4.528,-1.904 4.464,-2.048 4.344,-2.16C4.224,-2.272 4.07,-2.362 3.882,-2.43C3.694,-2.498 3.48,-2.556 3.24,-2.604C3,-2.652 2.756,-2.704 2.508,-2.76C2.252,-2.816 2.006,-2.884 1.77,-2.964C1.534,-3.044 1.322,-3.152 1.134,-3.288C0.946,-3.424 0.796,-3.598 0.684,-3.81C0.572,-4.022 0.516,-4.284 0.516,-4.596C0.516,-4.932 0.598,-5.214 0.762,-5.442C0.926,-5.67 1.134,-5.854 1.386,-5.994C1.638,-6.134 1.918,-6.232 2.226,-6.288C2.534,-6.344 2.828,-6.372 3.108,-6.372C3.428,-6.372 3.734,-6.338 4.026,-6.27C4.318,-6.202 4.582,-6.092 4.818,-5.94C5.054,-5.788 5.25,-5.59 5.406,-5.346C5.562,-5.102 5.66,-4.808 5.7,-4.464L4.272,-4.464C4.208,-4.792 4.058,-5.012 3.822,-5.124C3.586,-5.236 3.316,-5.292 3.012,-5.292C2.916,-5.292 2.802,-5.284 2.67,-5.268C2.538,-5.252 2.414,-5.222 2.298,-5.178C2.182,-5.134 2.084,-5.07 2.004,-4.986C1.924,-4.902 1.884,-4.792 1.884,-4.656C1.884,-4.488 1.942,-4.352 2.058,-4.248C2.174,-4.144 2.326,-4.058 2.514,-3.99C2.702,-3.922 2.916,-3.864 3.156,-3.816C3.396,-3.768 3.644,-3.716 3.9,-3.66C4.148,-3.604 4.392,-3.536 4.632,-3.456C4.872,-3.376 5.086,-3.268 5.274,-3.132C5.462,-2.996 5.614,-2.824 5.73,-2.616C5.846,-2.408 5.904,-2.152 5.904,-1.848C5.904,-1.48 5.82,-1.168 5.652,-0.912C5.484,-0.656 5.266,-0.448 4.998,-0.288C4.73,-0.128 4.432,-0.012 4.104,0.06C3.776,0.132 3.452,0.168 3.132,0.168C2.74,0.168 2.378,0.124 2.046,0.036C1.714,-0.052 1.426,-0.186 1.182,-0.366C0.938,-0.546 0.746,-0.77 0.606,-1.038C0.466,-1.306 0.392,-1.624 0.384,-1.992L1.752,-1.992Z" style="fill:rgb(255,0,68);fill-rule:nonzero;"/>
            <path d="M12.396,0L11.052,0L11.052,-0.864L11.028,-0.864C10.86,-0.552 10.61,-0.302 10.278,-0.114C9.946,0.074 9.608,0.168 9.264,0.168C8.448,0.168 7.858,-0.034 7.494,-0.438C7.13,-0.842 6.948,-1.452 6.948,-2.268L6.948,-6.204L8.316,-6.204L8.316,-2.4C8.316,-1.856 8.42,-1.472 8.628,-1.248C8.836,-1.024 9.128,-0.912 9.504,-0.912C9.792,-0.912 10.032,-0.956 10.224,-1.044C10.416,-1.132 10.572,-1.25 10.692,-1.398C10.812,-1.546 10.898,-1.724 10.95,-1.932C11.002,-2.14 11.028,-2.364 11.028,-2.604L11.028,-6.204L12.396,-6.204L12.396,0Z" style="fill:rgb(255,0,68);fill-rule:nonzero;"/>
            <path d="M13.872,-8.568L15.24,-8.568L15.24,-5.4L15.264,-5.4C15.36,-5.552 15.476,-5.688 15.612,-5.808C15.748,-5.928 15.898,-6.03 16.062,-6.114C16.226,-6.198 16.398,-6.262 16.578,-6.306C16.758,-6.35 16.936,-6.372 17.112,-6.372C17.6,-6.372 18.026,-6.286 18.39,-6.114C18.754,-5.942 19.056,-5.706 19.296,-5.406C19.536,-5.106 19.716,-4.756 19.836,-4.356C19.956,-3.956 20.016,-3.528 20.016,-3.072C20.016,-2.656 19.962,-2.252 19.854,-1.86C19.746,-1.468 19.582,-1.122 19.362,-0.822C19.142,-0.522 18.864,-0.282 18.528,-0.102C18.192,0.078 17.796,0.168 17.34,0.168C17.132,0.168 16.922,0.154 16.71,0.126C16.498,0.098 16.296,0.044 16.104,-0.036C15.912,-0.116 15.738,-0.22 15.582,-0.348C15.426,-0.476 15.296,-0.644 15.192,-0.852L15.168,-0.852L15.168,0L13.872,0L13.872,-8.568ZM18.648,-3.096C18.648,-3.376 18.612,-3.648 18.54,-3.912C18.468,-4.176 18.36,-4.41 18.216,-4.614C18.072,-4.818 17.892,-4.982 17.676,-5.106C17.46,-5.23 17.212,-5.292 16.932,-5.292C16.356,-5.292 15.922,-5.092 15.63,-4.692C15.338,-4.292 15.192,-3.76 15.192,-3.096C15.192,-2.784 15.23,-2.494 15.306,-2.226C15.382,-1.958 15.496,-1.728 15.648,-1.536C15.8,-1.344 15.982,-1.192 16.194,-1.08C16.406,-0.968 16.652,-0.912 16.932,-0.912C17.244,-0.912 17.508,-0.976 17.724,-1.104C17.94,-1.232 18.118,-1.398 18.258,-1.602C18.398,-1.806 18.498,-2.038 18.558,-2.298C18.618,-2.558 18.648,-2.824 18.648,-3.096Z" style="fill:rgb(255,0,68);fill-rule:nonzero;"/>
            <path d="M20.544,-6.204L21.576,-6.204L21.576,-8.064L22.944,-8.064L22.944,-6.204L24.18,-6.204L24.18,-5.184L22.944,-5.184L22.944,-1.872C22.944,-1.728 22.95,-1.604 22.962,-1.5C22.974,-1.396 23.002,-1.308 23.046,-1.236C23.09,-1.164 23.156,-1.11 23.244,-1.074C23.332,-1.038 23.452,-1.02 23.604,-1.02C23.7,-1.02 23.796,-1.022 23.892,-1.026C23.988,-1.03 24.084,-1.044 24.18,-1.068L24.18,-0.012C24.028,0.004 23.88,0.02 23.736,0.036C23.592,0.052 23.444,0.06 23.292,0.06C22.932,0.06 22.642,0.026 22.422,-0.042C22.202,-0.11 22.03,-0.21 21.906,-0.342C21.782,-0.474 21.698,-0.64 21.654,-0.84C21.61,-1.04 21.584,-1.268 21.576,-1.524L21.576,-5.184L20.544,-5.184L20.544,-6.204Z" style="fill:rgb(255,0,68);fill-rule:nonzero;"/>
            <path d="M30.36,-1.38C30.36,-1.212 30.382,-1.092 30.426,-1.02C30.47,-0.948 30.556,-0.912 30.684,-0.912C30.724,-0.912 30.772,-0.912 30.828,-0.912C30.884,-0.912 30.948,-0.92 31.02,-0.936L31.02,0.012C30.972,0.028 30.91,0.046 30.834,0.066C30.758,0.086 30.68,0.104 30.6,0.12C30.52,0.136 30.44,0.148 30.36,0.156C30.28,0.164 30.212,0.168 30.156,0.168C29.876,0.168 29.644,0.112 29.46,0C29.276,-0.112 29.156,-0.308 29.1,-0.588C28.828,-0.324 28.494,-0.132 28.098,-0.012C27.702,0.108 27.32,0.168 26.952,0.168C26.672,0.168 26.404,0.13 26.148,0.054C25.892,-0.022 25.666,-0.134 25.47,-0.282C25.274,-0.43 25.118,-0.618 25.002,-0.846C24.886,-1.074 24.828,-1.34 24.828,-1.644C24.828,-2.028 24.898,-2.34 25.038,-2.58C25.178,-2.82 25.362,-3.008 25.59,-3.144C25.818,-3.28 26.074,-3.378 26.358,-3.438C26.642,-3.498 26.928,-3.544 27.216,-3.576C27.464,-3.624 27.7,-3.658 27.924,-3.678C28.148,-3.698 28.346,-3.732 28.518,-3.78C28.69,-3.828 28.826,-3.902 28.926,-4.002C29.026,-4.102 29.076,-4.252 29.076,-4.452C29.076,-4.628 29.034,-4.772 28.95,-4.884C28.866,-4.996 28.762,-5.082 28.638,-5.142C28.514,-5.202 28.376,-5.242 28.224,-5.262C28.072,-5.282 27.928,-5.292 27.792,-5.292C27.408,-5.292 27.092,-5.212 26.844,-5.052C26.596,-4.892 26.456,-4.644 26.424,-4.308L25.056,-4.308C25.08,-4.708 25.176,-5.04 25.344,-5.304C25.512,-5.568 25.726,-5.78 25.986,-5.94C26.246,-6.1 26.54,-6.212 26.868,-6.276C27.196,-6.34 27.532,-6.372 27.876,-6.372C28.18,-6.372 28.48,-6.34 28.776,-6.276C29.072,-6.212 29.338,-6.108 29.574,-5.964C29.81,-5.82 30,-5.634 30.144,-5.406C30.288,-5.178 30.36,-4.9 30.36,-4.572L30.36,-1.38ZM28.992,-3.108C28.784,-2.972 28.528,-2.89 28.224,-2.862C27.92,-2.834 27.616,-2.792 27.312,-2.736C27.168,-2.712 27.028,-2.678 26.892,-2.634C26.756,-2.59 26.636,-2.53 26.532,-2.454C26.428,-2.378 26.346,-2.278 26.286,-2.154C26.226,-2.03 26.196,-1.88 26.196,-1.704C26.196,-1.552 26.24,-1.424 26.328,-1.32C26.416,-1.216 26.522,-1.134 26.646,-1.074C26.77,-1.014 26.906,-0.972 27.054,-0.948C27.202,-0.924 27.336,-0.912 27.456,-0.912C27.608,-0.912 27.772,-0.932 27.948,-0.972C28.124,-1.012 28.29,-1.08 28.446,-1.176C28.602,-1.272 28.732,-1.394 28.836,-1.542C28.94,-1.69 28.992,-1.872 28.992,-2.088L28.992,-3.108Z" style="fill:rgb(255,0,68);fill-rule:nonzero;"/>
            <path d="M37.572,-0.324C37.572,0.612 37.31,1.31 36.786,1.77C36.262,2.23 35.508,2.46 34.524,2.46C34.212,2.46 33.898,2.428 33.582,2.364C33.266,2.3 32.978,2.192 32.718,2.04C32.458,1.888 32.24,1.688 32.064,1.44C31.888,1.192 31.784,0.888 31.752,0.528L33.12,0.528C33.16,0.72 33.228,0.876 33.324,0.996C33.42,1.116 33.534,1.21 33.666,1.278C33.798,1.346 33.944,1.39 34.104,1.41C34.264,1.43 34.432,1.44 34.608,1.44C35.16,1.44 35.564,1.304 35.82,1.032C36.076,0.76 36.204,0.368 36.204,-0.144L36.204,-1.092L36.18,-1.092C35.988,-0.748 35.726,-0.48 35.394,-0.288C35.062,-0.096 34.704,0 34.32,0C33.824,0 33.402,-0.086 33.054,-0.258C32.706,-0.43 32.418,-0.666 32.19,-0.966C31.962,-1.266 31.796,-1.612 31.692,-2.004C31.588,-2.396 31.536,-2.816 31.536,-3.264C31.536,-3.68 31.6,-4.076 31.728,-4.452C31.856,-4.828 32.04,-5.158 32.28,-5.442C32.52,-5.726 32.814,-5.952 33.162,-6.12C33.51,-6.288 33.904,-6.372 34.344,-6.372C34.736,-6.372 35.096,-6.29 35.424,-6.126C35.752,-5.962 36.004,-5.704 36.18,-5.352L36.204,-5.352L36.204,-6.204L37.572,-6.204L37.572,-0.324ZM34.536,-1.08C34.84,-1.08 35.098,-1.142 35.31,-1.266C35.522,-1.39 35.694,-1.554 35.826,-1.758C35.958,-1.962 36.054,-2.194 36.114,-2.454C36.174,-2.714 36.204,-2.976 36.204,-3.24C36.204,-3.504 36.172,-3.76 36.108,-4.008C36.044,-4.256 35.946,-4.476 35.814,-4.668C35.682,-4.86 35.51,-5.012 35.298,-5.124C35.086,-5.236 34.832,-5.292 34.536,-5.292C34.232,-5.292 33.976,-5.228 33.768,-5.1C33.56,-4.972 33.392,-4.806 33.264,-4.602C33.136,-4.398 33.044,-4.166 32.988,-3.906C32.932,-3.646 32.904,-3.388 32.904,-3.132C32.904,-2.876 32.936,-2.626 33,-2.382C33.064,-2.138 33.162,-1.92 33.294,-1.728C33.426,-1.536 33.594,-1.38 33.798,-1.26C34.002,-1.14 34.248,-1.08 34.536,-1.08Z" style="fill:rgb(255,0,68);fill-rule:nonzero;"/>
        </g>
        <g transform="matrix(1,0,0,1,-4,0)">
            <ellipse cx="76.423" cy="32.375" rx="3.806" ry="3.795" style="fill:rgb(140,140,140);"/>
        </g>
        <g transform="matrix(1.45863,0,0,1.45863,-27.9417,-28.134)">
            <ellipse cx="76.423" cy="32.375" rx="3.806" ry="3.795" style="fill:rgb(191,191,191);"/>
        </g>
    </g>
</svg>
